<?xml version="1.0" encoding="UTF-8"?>
<svg id="Layer_2" data-name="Layer 2" xmlns="http://www.w3.org/2000/svg" viewBox="0 0 113.27 86">
  <defs>
    <style>.cls-1{fill:#fff;stroke-width:0px;}</style>
  </defs>
  <g id="Header">
    <g>
      <g>
        <path class="cls-1" d="M0,24.17v-3.48h4.64v3.79c0,1.04.7,1.74,1.74,1.74s1.74-.7,1.74-1.74v-2.24C8.12,17.41,0,15.86,0,8.7v-2.32C0,2.51,2.51,0,6.38,0s6.38,2.55,6.38,6.38v3.48h-4.64v-3.79c0-1.04-.7-1.74-1.74-1.74s-1.74.7-1.74,1.74v2.24c0,4.8,8.12,6.38,8.12,13.54v2.32c0,3.87-2.51,6.38-6.38,6.38S0,28,0,24.17Z"/>
        <path class="cls-1" d="M58.73.58h3.83l5.07,14.39V.58h4.64v29.4h-3.87l-5.03-14.27v14.27h-4.64V.58Z"/>
        <path class="cls-1" d="M84.26.58h4.64v29.4h-4.64V.58Z"/>
        <path class="cls-1" d="M100.5,24.17V6.38C100.5,2.51,103.02,0,106.89,0s6.38,2.55,6.38,6.38v3.48h-4.64v-3.79c0-1.04-.7-1.74-1.74-1.74s-1.74.7-1.74,1.74v18.41c0,1.04.7,1.74,1.74,1.74s1.74-.7,1.74-1.74v-3.79h4.64v3.48c0,3.87-2.51,6.38-6.38,6.38s-6.38-2.55-6.38-6.38Z"/>
        <path class="cls-1" d="M0,38.25h6.38c3.83,0,6.38,2.55,6.38,6.38v3.67c0,1.93-.66,3.52-1.78,4.64,1.12,1.12,1.78,2.71,1.78,4.64v3.67c0,3.87-2.51,6.38-6.38,6.38H0v-29.4ZM6.38,50.78c1.04,0,1.74-.7,1.74-1.74v-4.72c0-1.04-.7-1.74-1.74-1.74h-1.74v8.2h1.74ZM6.38,63.31c1.04,0,1.74-.7,1.74-1.74v-4.72c0-1.04-.7-1.74-1.74-1.74h-1.74v8.2h1.74Z"/>
        <path class="cls-1" d="M97.1,38.25h3.83l4.25,12.07,4.25-12.07h3.83v29.4h-4.64v-14.27l-2.82,8.01h-1.24l-2.82-8.01v14.27h-4.64v-29.4Z"/>
        <path class="cls-1" d="M35.56,42.7c5.65,0,10.24,4.6,10.24,10.24s-4.6,10.24-10.24,10.24-10.24-4.6-10.24-10.24,4.6-10.24,10.24-10.24M35.56,37.67c-8.44,0-15.28,6.84-15.28,15.28s6.84,15.28,15.28,15.28,15.28-6.84,15.28-15.28-6.84-15.28-15.28-15.28h0Z"/>
        <path class="cls-1" d="M73.81,42.7c5.65,0,10.24,4.6,10.24,10.24s-4.6,10.24-10.24,10.24-10.24-4.6-10.24-10.24,4.6-10.24,10.24-10.24M73.81,37.67c-8.44,0-15.28,6.84-15.28,15.28s6.84,15.28,15.28,15.28,15.28-6.84,15.28-15.28-6.84-15.28-15.28-15.28h0Z"/>
        <path class="cls-1" d="M35.23,5.03c5.65,0,10.24,4.6,10.24,10.24s-4.6,10.24-10.24,10.24-10.24-4.6-10.24-10.24,4.6-10.24,10.24-10.24M35.23,0c-8.44,0-15.28,6.84-15.28,15.28s6.84,15.28,15.28,15.28,15.28-6.84,15.28-15.28S43.66,0,35.23,0h0Z"/>
      </g>
      <text
        x="56.635" y="85"
        font-family="'Frontage Condensed','Bebas Neue',Arial,Helvetica,sans-serif"
        font-size="12" font-weight="700" fill="#fff"
        text-anchor="middle" letter-spacing="7">FESTIVAL</text>
    </g>
  </g>
</svg>
